<svg xmlns="http://www.w3.org/2000/svg" width="1440" height="810" viewBox="0 0 1440 810"><defs>
 <linearGradient id="room" x2="0" y2="1"><stop stop-color="#142b32"/><stop offset="1" stop-color="#09161e"/></linearGradient>
 <linearGradient id="floor" x2="0" y2="1"><stop stop-color="#21353b"/><stop offset="1" stop-color="#0c1b24"/></linearGradient>
 <linearGradient id="screen" x2="0.9" y2="1"><stop stop-color="#245d60"/><stop offset="1" stop-color="#153139"/></linearGradient>
 <linearGradient id="glass" x2="0" y2="1"><stop stop-color="#385663"/><stop offset="1" stop-color="#152932"/></linearGradient>
 <radialGradient id="warm"><stop stop-color="#e6dabb" stop-opacity=".19"/><stop offset="1" stop-color="#e6dabb" stop-opacity="0"/></radialGradient>
 <radialGradient id="cyan"><stop stop-color="#70d4cf" stop-opacity=".18"/><stop offset="1" stop-color="#70d4cf" stop-opacity="0"/></radialGradient>
 <radialGradient id="violet"><stop stop-color="#bd9cff" stop-opacity=".16"/><stop offset="1" stop-color="#bd9cff" stop-opacity="0"/></radialGradient>
 <pattern id="grate" width="24" height="24" patternUnits="userSpaceOnUse"><path d="M0 2h24M2 0v24" stroke="#637a7a" stroke-opacity=".12" fill="none"/></pattern>
 <pattern id="scan" width="6" height="6" patternUnits="userSpaceOnUse"><path d="M0 1h6" stroke="#86b3b3" stroke-opacity=".045"/></pattern>
</defs><rect x="0" y="0" width="1440" height="810" fill="url(#room)" /><path d="M0 563H1440V810H0Z" fill="url(#floor)"  /><path d="M0 810L580 563M250 810L645 563M650 810L715 563M1030 810L790 563M1440 810L860 563M0 650H1440M0 750H1440" fill="none" stroke="#3c5157" opacity=".45"/><rect x="88" y="75" width="980" height="317" fill="#09191e" stroke="#496367" stroke-width="9"/><rect x="100" y="87" width="956" height="292" fill="url(#glass)" /><path d="M102 314L302 211 509 323 635 262 849 333 1058 248V380H100Z" fill="#11262e"  /><path d="M740 320V117M700 170H780M714 208H766M745 117L810 320M734 117L674 320" fill="none" stroke="#0b1c24" stroke-width="5"/><path d="M115 97l-11 38" fill="none" stroke="#779aa8" opacity=".19"/><path d="M134 154l-11 38" fill="none" stroke="#779aa8" opacity=".19"/><path d="M153 211l-11 38" fill="none" stroke="#779aa8" opacity=".19"/><path d="M172 268l-11 38" fill="none" stroke="#779aa8" opacity=".19"/><path d="M191 325l-11 38" fill="none" stroke="#779aa8" opacity=".19"/><path d="M210 152l-11 38" fill="none" stroke="#779aa8" opacity=".19"/><path d="M229 209l-11 38" fill="none" stroke="#779aa8" opacity=".19"/><path d="M248 266l-11 38" fill="none" stroke="#779aa8" opacity=".19"/><path d="M267 323l-11 38" fill="none" stroke="#779aa8" opacity=".19"/><path d="M286 150l-11 38" fill="none" stroke="#779aa8" opacity=".19"/><path d="M305 207l-11 38" fill="none" stroke="#779aa8" opacity=".19"/><path d="M324 264l-11 38" fill="none" stroke="#779aa8" opacity=".19"/><path d="M343 321l-11 38" fill="none" stroke="#779aa8" opacity=".19"/><path d="M362 148l-11 38" fill="none" stroke="#779aa8" opacity=".19"/><path d="M381 205l-11 38" fill="none" stroke="#779aa8" opacity=".19"/><path d="M400 262l-11 38" fill="none" stroke="#779aa8" opacity=".19"/><path d="M419 319l-11 38" fill="none" stroke="#779aa8" opacity=".19"/><path d="M438 146l-11 38" fill="none" stroke="#779aa8" opacity=".19"/><path d="M457 203l-11 38" fill="none" stroke="#779aa8" opacity=".19"/><path d="M476 260l-11 38" fill="none" stroke="#779aa8" opacity=".19"/><path d="M495 317l-11 38" fill="none" stroke="#779aa8" opacity=".19"/><path d="M514 144l-11 38" fill="none" stroke="#779aa8" opacity=".19"/><path d="M533 201l-11 38" fill="none" stroke="#779aa8" opacity=".19"/><path d="M552 258l-11 38" fill="none" stroke="#779aa8" opacity=".19"/><path d="M571 315l-11 38" fill="none" stroke="#779aa8" opacity=".19"/><path d="M590 142l-11 38" fill="none" stroke="#779aa8" opacity=".19"/><path d="M609 199l-11 38" fill="none" stroke="#779aa8" opacity=".19"/><path d="M628 256l-11 38" fill="none" stroke="#779aa8" opacity=".19"/><path d="M647 313l-11 38" fill="none" stroke="#779aa8" opacity=".19"/><path d="M666 140l-11 38" fill="none" stroke="#779aa8" opacity=".19"/><path d="M685 197l-11 38" fill="none" stroke="#779aa8" opacity=".19"/><path d="M704 254l-11 38" fill="none" stroke="#779aa8" opacity=".19"/><path d="M723 311l-11 38" fill="none" stroke="#779aa8" opacity=".19"/><path d="M742 138l-11 38" fill="none" stroke="#779aa8" opacity=".19"/><path d="M761 195l-11 38" fill="none" stroke="#779aa8" opacity=".19"/><path d="M780 252l-11 38" fill="none" stroke="#779aa8" opacity=".19"/><path d="M799 309l-11 38" fill="none" stroke="#779aa8" opacity=".19"/><path d="M818 136l-11 38" fill="none" stroke="#779aa8" opacity=".19"/><path d="M837 193l-11 38" fill="none" stroke="#779aa8" opacity=".19"/><path d="M856 250l-11 38" fill="none" stroke="#779aa8" opacity=".19"/><path d="M875 307l-11 38" fill="none" stroke="#779aa8" opacity=".19"/><path d="M894 134l-11 38" fill="none" stroke="#779aa8" opacity=".19"/><path d="M913 191l-11 38" fill="none" stroke="#779aa8" opacity=".19"/><path d="M932 248l-11 38" fill="none" stroke="#779aa8" opacity=".19"/><path d="M951 305l-11 38" fill="none" stroke="#779aa8" opacity=".19"/><path d="M970 132l-11 38" fill="none" stroke="#779aa8" opacity=".19"/><path d="M989 189l-11 38" fill="none" stroke="#779aa8" opacity=".19"/><path d="M1008 246l-11 38" fill="none" stroke="#779aa8" opacity=".19"/><path d="M1027 303l-11 38" fill="none" stroke="#779aa8" opacity=".19"/><path d="M1046 130l-11 38" fill="none" stroke="#779aa8" opacity=".19"/><rect x="415" y="80" width="14" height="305" fill="#15292e" /><rect x="737" y="80" width="14" height="305" fill="#15292e" /><rect x="97" y="248" width="969" height="12" fill="#15292e" /><rect x="249" y="18" width="496" height="28" fill="#18282c" /><rect x="257" y="26" width="480" height="8" fill="#ddd7b5" /><ellipse cx="497" cy="126" rx="864" ry="180" fill="url(#warm)"/><rect x="1118" y="78" width="229" height="510" fill="#1a3035" stroke="#395155" stroke-width="3"/><text x="1153" y="117" fill="#748d91" font-family="monospace" font-size="14" letter-spacing="3" >RELAY / 06</text><rect x="1140" y="143" width="180" height="128" fill="#0a171c" stroke="#496164" stroke-width="2"/><rect x="1150" y="153" width="160" height="108" fill="url(#screen)" /><path d="M1162 171h48" fill="none" stroke="#75c6c1" stroke-width="2" opacity=".5"/><path d="M1162 189h75.19999999999999" fill="none" stroke="#75c6c1" stroke-width="2" opacity=".5"/><path d="M1162 207h102.4" fill="none" stroke="#75c6c1" stroke-width="2" opacity=".5"/><rect x="1151" y="298" width="158" height="23" fill="#10232a" stroke="#40555a"/><circle cx="1168" cy="309" r="3" fill="#65a89f" /><rect x="1151" y="333" width="158" height="23" fill="#10232a" stroke="#40555a"/><circle cx="1168" cy="344" r="3" fill="#65a89f" /><rect x="1151" y="368" width="158" height="23" fill="#10232a" stroke="#40555a"/><circle cx="1168" cy="379" r="3" fill="#c7ae79" /><rect x="1151" y="403" width="158" height="23" fill="#10232a" stroke="#40555a"/><circle cx="1168" cy="414" r="3" fill="#65a89f" /><rect x="1151" y="438" width="158" height="23" fill="#10232a" stroke="#40555a"/><circle cx="1168" cy="449" r="3" fill="#65a89f" /><rect x="1151" y="473" width="158" height="23" fill="#10232a" stroke="#40555a"/><circle cx="1168" cy="484" r="3" fill="#65a89f" /><path d="M302 479L982 452 1105 639 197 652Z" fill="#344b4f" stroke="#53666a" stroke-width="3"/><path d="M197 652L1105 639V769L197 790Z" fill="#152a32" stroke="#30484d" stroke-width="3"/><rect x="334" y="333" width="279" height="194" fill="#182d33" stroke="#5d7474" stroke-width="3"/><rect x="344" y="342" width="260" height="166" fill="#0a171c" stroke="#496164" stroke-width="2"/><rect x="354" y="352" width="240" height="146" fill="url(#screen)" /><path d="M366 370h72" fill="none" stroke="#75c6c1" stroke-width="2" opacity=".5"/><path d="M366 388h112.8" fill="none" stroke="#75c6c1" stroke-width="2" opacity=".5"/><path d="M366 406h153.6" fill="none" stroke="#75c6c1" stroke-width="2" opacity=".5"/><path d="M366 424h72" fill="none" stroke="#75c6c1" stroke-width="2" opacity=".5"/><path d="M366 442h112.8" fill="none" stroke="#75c6c1" stroke-width="2" opacity=".5"/><rect x="644" y="340" width="266" height="183" fill="#142b31" stroke="#657b79" stroke-width="3"/><rect x="655" y="350" width="246" height="159" fill="#0a171c" stroke="#496164" stroke-width="2"/><rect x="665" y="360" width="226" height="139" fill="url(#screen)" /><path d="M677 378h67.8" fill="none" stroke="#75c6c1" stroke-width="2" opacity=".5"/><path d="M677 396h106.22" fill="none" stroke="#75c6c1" stroke-width="2" opacity=".5"/><path d="M680 451h25l8-25 15 44 11-24h25l12-17 12 23h76" fill="none" stroke="#8dc9bd" stroke-width="2"/><rect x="430" y="563" width="200" height="44" fill="#10242c" transform="skewX(-12)"/><path d="M327 569v29" fill="none" stroke="#496265" stroke-width="6"/><path d="M344 569v29" fill="none" stroke="#496265" stroke-width="6"/><path d="M361 569v29" fill="none" stroke="#496265" stroke-width="6"/><path d="M378 569v29" fill="none" stroke="#496265" stroke-width="6"/><path d="M395 569v29" fill="none" stroke="#496265" stroke-width="6"/><path d="M412 569v29" fill="none" stroke="#496265" stroke-width="6"/><path d="M429 569v29" fill="none" stroke="#496265" stroke-width="6"/><path d="M446 569v29" fill="none" stroke="#496265" stroke-width="6"/><path d="M463 569v29" fill="none" stroke="#496265" stroke-width="6"/><path d="M480 569v29" fill="none" stroke="#496265" stroke-width="6"/><path d="M497 569v29" fill="none" stroke="#496265" stroke-width="6"/><circle cx="907" cy="582" r="24" fill="#13272e" stroke="#a99d72" stroke-width="3"/><rect x="942" y="556" width="72" height="34" fill="#9bb8aa" opacity=".6"/><rect x="76" y="459" width="198" height="180" fill="#1e3439" stroke="#45595b" stroke-width="3"/><rect x="103" y="476" width="127" height="97" fill="#abaf9a" transform="rotate(-7 103 476)"/><text x="119" y="500" fill="#33494c" font-family="monospace" font-size="23" letter-spacing="3" >06</text><circle cx="753" cy="483" r="230" fill="url(#cyan)" /><text x="81" y="728" fill="#748d91" font-family="monospace" font-size="14" letter-spacing="3" >NORTH RELAY</text><text x="81" y="754" fill="#748d91" font-family="monospace" font-size="10" letter-spacing="3" >AUTOMATED / OCCUPANCY 0</text><path d="M0 0H62V810H0ZM1388 0H1440V810H1388Z" fill="#0a1920"  /><rect x="0" y="0" width="1440" height="810" fill="url(#scan)" /></svg>